{
  "accessors": [
    {
      "bufferView": 2,
      "componentType": 5126,
      "count": 10,
      "max": [
        0.5350146889686584,
        -4.035064697265625,
        3.180191993713379
      ],
      "min": [
        -0.5996726751327515,
        -5.732828617095947,
        0.1893196702003479
      ],
      "type": "VEC3"
    },
    {
      "bufferView": 2,
      "byteOffset": 120,
      "componentType": 5126,
      "count": 10,
      "max": [
        0.25087031722068787,
        -0.8622140884399414,
        0.10529820621013641
      ],
      "min": [
        -0.1367180347442627,
        -0.9996364712715149,
        -0.4999321699142456
      ],
      "type": "VEC3"
    },
    {
      "bufferView": 1,
      "componentType": 5126,
      "count": 10,
      "max": [
        0.0,
        0.0
      ],
      "min": [
        0.0,
        0.0
      ],
      "type": "VEC2"
    },
    {
      "bufferView": 0,
      "componentType": 5125,
      "count": 12,
      "type": "SCALAR"
    },
    {
      "bufferView": 2,
      "byteOffset": 240,
      "componentType": 5126,
      "count": 65532,
      "max": [
        2.976876735687256,
        -3.9674415588378906,
        5.118222713470459
      ],
      "min": [
        -2.0535707473754883,
        -5.874185562133789,
        0.08216403424739838
      ],
      "type": "VEC3"
    },
    {
      "bufferView": 2,
      "byteOffset": 786624,
      "componentType": 5126,
      "count": 65532,
      "max": [
        0.9999836087226868,
        0.999958336353302,
        0.9999837875366211
      ],
      "min": [
        -0.9999913573265076,
        -1.0,
        -0.9999974966049194
      ],
      "type": "VEC3"
    },
    {
      "bufferView": 1,
      "byteOffset": 80,
      "componentType": 5126,
      "count": 65532,
      "max": [
        0.9916819930076599,
        0.9919189810752869
      ],
      "min": [
        0.008078999817371368,
        0.008332000114023685
      ],
      "type": "VEC2"
    },
    {
      "bufferView": 0,
      "byteOffset": 48,
      "componentType": 5125,
      "count": 345987,
      "type": "SCALAR"
    },
    {
      "bufferView": 2,
      "byteOffset": 1573008,
      "componentType": 5126,
      "count": 15539,
      "max": [
        2.8719592094421387,
        -3.985956907272339,
        5.113528728485107
      ],
      "min": [
        -1.9719669818878174,
        -5.825566291809082,
        0.0815083235502243
      ],
      "type": "VEC3"
    },
    {
      "bufferView": 2,
      "byteOffset": 1759476,
      "componentType": 5126,
      "count": 15539,
      "max": [
        0.9999495148658752,
        0.9730174541473389,
        0.9999000430107117
      ],
      "min": [
        -0.9995680451393127,
        -0.9999998807907104,
        -0.9999833703041077
      ],
      "type": "VEC3"
    },
    {
      "bufferView": 1,
      "byteOffset": 524336,
      "componentType": 5126,
      "count": 15539,
      "max": [
        0.9910680055618286,
        0.9919270277023315
      ],
      "min": [
        0.19074299931526184,
        0.009246000088751316
      ],
      "type": "VEC2"
    },
    {
      "bufferView": 0,
      "byteOffset": 1383996,
      "componentType": 5125,
      "count": 78981,
      "type": "SCALAR"
    },
    {
      "bufferView": 2,
      "byteOffset": 1945944,
      "componentType": 5126,
      "count": 17965,
      "max": [
        2.9597878456115723,
        -3.9675281047821045,
        5.052906513214111
      ],
      "min": [
        -2.0178446769714355,
        -5.870765209197998,
        0.08996958285570145
      ],
      "type": "VEC3"
    },
    {
      "bufferView": 2,
      "byteOffset": 2161524,
      "componentType": 5126,
      "count": 17965,
      "max": [
        0.9995549321174622,
        0.9999963045120239,
        0.9999305009841919
      ],
      "min": [
        -0.9998752474784851,
        -0.9999996423721313,
        -0.9999951720237732
      ],
      "type": "VEC3"
    },
    {
      "bufferView": 1,
      "byteOffset": 648648,
      "componentType": 5126,
      "count": 17965,
      "max": [
        0.9913700222969055,
        0.9919419884681702
      ],
      "min": [
        0.008093999698758125,
        0.41749998927116394
      ],
      "type": "VEC2"
    },
    {
      "bufferView": 0,
      "byteOffset": 1699920,
      "componentType": 5125,
      "count": 65610,
      "type": "SCALAR"
    },
    {
      "bufferView": 2,
      "byteOffset": 2377104,
      "componentType": 5126,
      "count": 1085,
      "max": [
        2.268601655960083,
        -3.9674415588378906,
        3.8295278549194336
      ],
      "min": [
        -1.0518401861190796,
        -3.99894642829895,
        1.839118242263794
      ],
      "type": "VEC3"
    },
    {
      "bufferView": 2,
      "byteOffset": 2390124,
      "componentType": 5126,
      "count": 1085,
      "max": [
        0.9988911747932434,
        0.9999963045120239,
        0.9996342658996582
      ],
      "min": [
        -0.9897844195365906,
        -0.998429000377655,
        -0.9997965693473816
      ],
      "type": "VEC3"
    },
    {
      "bufferView": 1,
      "byteOffset": 792368,
      "componentType": 5126,
      "count": 1085,
      "max": [
        0.0,
        0.0
      ],
      "min": [
        0.0,
        0.0
      ],
      "type": "VEC2"
    },
    {
      "bufferView": 0,
      "byteOffset": 1962360,
      "componentType": 5125,
      "count": 4272,
      "type": "SCALAR"
    }
  ],
  "asset": {
    "extras": {
      "author": "jtressle (https://sketchfab.com/jtressle)",
      "license": "CC-BY-4.0 (http://creativecommons.org/licenses/by/4.0/)",
      "source": "https://sketchfab.com/3d-models/chris-m-birthday-cake-26421a9f3b4d42e79b6e8bbff9d3f7bc",
      "title": "Chris M Birthday Cake"
    },
    "generator": "Sketchfab-12.67.0",
    "version": "2.0"
  },
  "bufferViews": [
    {
      "buffer": 0,
      "byteLength": 1979448,
      "name": "floatBufferViews",
      "target": 34963
    },
    {
      "buffer": 0,
      "byteLength": 801048,
      "byteOffset": 1979448,
      "byteStride": 8,
      "name": "floatBufferViews",
      "target": 34962
    },
    {
      "buffer": 0,
      "byteLength": 2403144,
      "byteOffset": 2780496,
      "byteStride": 12,
      "name": "floatBufferViews",
      "target": 34962
    }
  ],
  "buffers": [
    {
      "byteLength": 5183640,
      "uri": "scene.bin"
    }
  ],
  "extensionsUsed": [
    "KHR_materials_unlit"
  ],
  "images": [
    {
      "uri": "textures/material_0_baseColor.jpeg"
    },
    {
      "uri": "textures/material_1_baseColor.jpeg"
    }
  ],
  "materials": [
    {
      "doubleSided": true,
      "extensions": {
        "KHR_materials_unlit": {}
      },
      "name": "material_0",
      "pbrMetallicRoughness": {
        "baseColorTexture": {
          "index": 0
        },
        "metallicFactor": 0.0
      }
    },
    {
      "doubleSided": true,
      "extensions": {
        "KHR_materials_unlit": {}
      },
      "name": "material_1",
      "pbrMetallicRoughness": {
        "baseColorTexture": {
          "index": 1
        },
        "metallicFactor": 0.0
      }
    }
  ],
  "meshes": [
    {
      "name": "Object_0",
      "primitives": [
        {
          "attributes": {
            "NORMAL": 1,
            "POSITION": 0,
            "TEXCOORD_0": 2
          },
          "indices": 3,
          "material": 0,
          "mode": 4
        }
      ]
    },
    {
      "name": "Object_1",
      "primitives": [
        {
          "attributes": {
            "NORMAL": 5,
            "POSITION": 4,
            "TEXCOORD_0": 6
          },
          "indices": 7,
          "material": 0,
          "mode": 4
        }
      ]
    },
    {
      "name": "Object_2",
      "primitives": [
        {
          "attributes": {
            "NORMAL": 9,
            "POSITION": 8,
            "TEXCOORD_0": 10
          },
          "indices": 11,
          "material": 0,
          "mode": 4
        }
      ]
    },
    {
      "name": "Object_3",
      "primitives": [
        {
          "attributes": {
            "NORMAL": 13,
            "POSITION": 12,
            "TEXCOORD_0": 14
          },
          "indices": 15,
          "material": 1,
          "mode": 4
        }
      ]
    },
    {
      "name": "Object_4",
      "primitives": [
        {
          "attributes": {
            "NORMAL": 17,
            "POSITION": 16,
            "TEXCOORD_0": 18
          },
          "indices": 19,
          "material": 1,
          "mode": 4
        }
      ]
    }
  ],
  "nodes": [
    {
      "children": [
        1
      ],
      "matrix": [
        -4.440892098500626e-16,
        -2.7755575615628914e-16,
        1.0,
        0.0,
        5.551115123125783e-17,
        -1.0,
        -3.3306690738754696e-16,
        0.0,
        1.0,
        1.1102230246251554e-16,
        4.996003610813204e-16,
        0.0,
        -2.1382150650024414,
        -2.3209497928619394,
        4.4591646194458,
        1.0
      ],
      "name": "Sketchfab_model"
    },
    {
      "children": [
        2,
        3,
        4,
        5,
        6
      ],
      "name": "mesh.obj.cleaner.materialmerger.gles"
    },
    {
      "mesh": 0,
      "name": "Object_2"
    },
    {
      "mesh": 1,
      "name": "Object_3"
    },
    {
      "mesh": 2,
      "name": "Object_4"
    },
    {
      "mesh": 3,
      "name": "Object_5"
    },
    {
      "mesh": 4,
      "name": "Object_6"
    }
  ],
  "samplers": [
    {
      "magFilter": 9729,
      "minFilter": 9987,
      "wrapS": 10497,
      "wrapT": 10497
    }
  ],
  "scene": 0,
  "scenes": [
    {
      "name": "Sketchfab_Scene",
      "nodes": [
        0
      ]
    }
  ],
  "textures": [
    {
      "sampler": 0,
      "source": 0
    },
    {
      "sampler": 0,
      "source": 1
    }
  ]
}
